<svg xmlns="http://www.w3.org/2000/svg" version="1.1" xmlns:xlink="http://www.w3.org/1999/xlink" xmlns:svgjs="http://svgjs.dev/svgjs" width="128" height="128" viewBox="0 0 128 128"><g transform="matrix(0.8046875,0,0,0.8046875,12.612792253521128,12.612792253521128)"><svg viewBox="0 0 142 142" data-background-color="#ffffff" preserveAspectRatio="xMidYMid meet" height="128" width="128" xmlns="http://www.w3.org/2000/svg" xmlns:xlink="http://www.w3.org/1999/xlink"><g id="tight-bounds" transform="matrix(1,0,0,1,-0.15550000000000352,-0.15550000000000352)"><svg viewBox="0 0 142.31066447748242 142.31066447748242" height="142.31066447748242" width="142.31066447748242"><g><svg></svg></g><g><svg viewBox="0 0 142.31066447748242 142.31066447748242" height="142.31066447748242" width="142.31066447748242"><g><path d="M0 71.155c0-39.298 31.857-71.155 71.155-71.155 39.298 0 71.155 31.857 71.156 71.155 0 39.298-31.857 71.155-71.156 71.156-39.298 0-71.155-31.857-71.155-71.156zM71.155 134.886c35.197 0 63.731-28.533 63.731-63.731 0-35.197-28.533-63.731-63.731-63.73-35.197 0-63.731 28.533-63.73 63.73 0 35.197 28.533 63.731 63.73 63.731z" data-fill-palette-color="tertiary" fill="#ee3e38" stroke="transparent"></path><ellipse rx="68.30911894919156" ry="68.30911894919156" cx="71.15533223874121" cy="71.15533223874121" fill="#ee3e38" stroke="transparent" stroke-width="0" fill-opacity="1" data-fill-palette-color="tertiary"></ellipse></g><g transform="matrix(1,0,0,1,30.886627694522538,29.989108276746492)"><svg viewBox="0 0 80.53740908843734 82.33244792398943" height="82.33244792398943" width="80.53740908843734"><g><svg viewBox="0 0 80.53740908843734 82.33244792398943" height="82.33244792398943" width="80.53740908843734"><g><svg viewBox="0 0 80.53740908843734 82.33244792398943" height="82.33244792398943" width="80.53740908843734"><g><svg viewBox="0 0 80.53740908843734 82.33244792398943" height="82.33244792398943" width="80.53740908843734"><g><svg viewBox="0 0 80.53740908843734 82.33244792398943" height="82.33244792398943" width="80.53740908843734"><g transform="matrix(1,0,0,1,0,0)"><svg width="80.53740908843734" viewBox="3.7 -34.4 33.65 34.4" height="82.33244792398943" data-palette-color="#ffffff"><path d="M36.35-23.85Q36.35-20.7 34.65-18.15 32.95-15.6 29.7-14.4L29.7-14.4 37.35 0 24.95 0 18.85-12.55 14.75-12.55 14.75 0 3.7 0 3.7-34.4 24.75-34.4Q28.45-34.4 31.08-32.98 33.7-31.55 35.02-29.13 36.35-26.7 36.35-23.85L36.35-23.85ZM25.1-23.4Q25.1-24.75 24.2-25.65 23.3-26.55 22-26.55L22-26.55 14.75-26.55 14.75-20.2 22-20.2Q23.3-20.2 24.2-21.13 25.1-22.05 25.1-23.4L25.1-23.4Z" opacity="1" transform="matrix(1,0,0,1,0,0)" fill="#ffffff" class="undefined-text-0" data-fill-palette-color="quaternary" id="text-0"></path></svg></g></svg></g></svg></g></svg></g><g></g></svg></g></svg></g></svg></g><defs></defs></svg><rect width="142.31066447748242" height="142.31066447748242" fill="none" stroke="none" visibility="hidden"></rect></g></svg></g></svg>